<svg width="270" height="60" viewBox="0 0 270 60" fill="none" xmlns="http://www.w3.org/2000/svg">
<path d="M35.3814 4.59142C35.5997 4.70066 35.818 4.59142 35.9817 4.59142C39.5289 3.93594 43.076 3.38971 46.6232 3.06197C48.8606 2.78885 51.1526 2.62498 53.39 2.62498C54.6997 2.62498 55.9549 2.73423 57.1555 3.06197C57.974 3.28046 58.6289 3.6082 59.0109 4.26368C59.3383 4.80991 59.3383 5.46539 59.12 6.12087C58.9017 6.83097 58.1378 7.15871 57.6466 6.77635C57.4829 6.6671 57.3737 6.39398 57.4283 6.12087C57.6466 5.2469 57.1555 4.91916 56.446 4.70066C55.8457 4.48217 55.1909 4.42755 54.536 4.37292C52.1349 4.20905 49.6792 4.37292 47.2234 4.64604C43.076 5.0284 38.9286 5.68388 34.7266 6.44861C34.1263 6.55785 33.6897 6.83097 33.3077 7.3772C30.6337 11.2008 28.0689 15.1337 25.5586 19.1212C20.3743 27.4239 15.19 35.7266 10.0057 44.0294C7.44082 48.1261 4.87596 52.2228 2.3111 56.3196C2.14739 56.5381 1.98367 56.8112 1.81996 57.0843C1.49253 57.4667 1.05596 57.5759 0.728529 57.4667C0.346529 57.3028 0.237386 56.9204 0.4011 56.4835C0.455672 56.3196 0.564815 56.1557 0.673958 55.9918C3.51168 51.622 6.24025 47.1975 8.96883 42.773C10.7697 39.9326 12.516 37.0922 14.3168 34.2518C18.4097 27.5878 22.5026 20.9238 26.7591 14.369C28.178 12.1294 29.6514 9.94449 31.1794 7.75956C31.3431 7.54107 31.5069 7.3772 31.5069 7.15871C31.3977 7.04946 31.234 7.10408 31.0703 7.15871C26.8683 8.03268 22.7208 8.96127 18.5188 10.2722C15.2445 11.3101 11.9703 12.5118 8.75054 14.2051C7.16797 15.0244 5.58539 15.953 4.16653 17.2094C3.56625 17.7556 3.0751 18.3018 2.63853 18.9573C1.87453 20.0498 1.60167 21.1969 1.76539 22.344C2.03825 24.1465 2.74767 25.676 4.22111 26.6592C4.38482 26.7684 4.49396 26.8231 4.60311 26.9869C4.93054 27.3147 4.87596 27.7517 4.54853 28.134C4.22111 28.4618 3.72996 28.571 3.34796 28.2979C2.58396 27.8063 1.87453 27.2054 1.32882 26.4407C0.728529 25.4575 0.291957 24.365 0.0736716 23.1633C-0.253758 20.9238 0.510244 18.8481 2.36567 16.8816C3.62082 15.5707 5.14882 14.4782 6.7314 13.5496C9.45997 11.9655 12.2431 10.8185 15.1354 9.78062C20.6471 7.75956 26.2134 6.50323 31.8343 5.41076C32.7074 5.19227 33.3077 4.91916 33.8534 4.09981C34.672 2.95272 35.5997 1.80564 36.6366 0.767795C36.8549 0.549302 37.0186 0.330808 37.2914 0.166938C37.8371 -0.106178 38.3283 -0.0515522 38.5466 0.385431C38.6557 0.603924 38.7649 0.822417 38.9832 1.04091C39.256 1.31403 39.2014 1.75101 38.9286 2.07875C38.6557 2.40649 38.2192 2.57036 37.8371 2.40649C37.2914 2.24262 37.2914 2.24262 36.9094 2.73423C36.3637 3.33508 35.8726 3.93594 35.3814 4.59142Z" fill="#530000"/>
<path d="M33.6283 35.1258C33.5192 35.1258 33.4646 35.235 33.41 35.3443C31.8275 36.9283 30.1903 38.4032 28.5532 39.878C27.7892 40.4789 27.0252 41.0797 26.2066 41.5713C25.77 41.8444 25.3335 42.0629 24.8423 42.1722C24.1329 42.2814 23.5326 42.0083 23.4235 41.3528C23.3143 40.9158 23.3689 40.4789 23.478 40.0419C23.9692 38.6763 24.6786 37.42 25.4426 36.1636C26.5886 34.3064 27.8437 32.5039 29.0443 30.7013C29.3172 30.3189 29.59 29.9366 29.8629 29.5542C30.2449 28.9534 30.736 28.7349 31.1726 28.9534C31.6092 29.1719 31.6092 29.7181 31.2272 30.3189C29.6992 32.5039 28.1712 34.7434 26.7523 37.0376C26.2066 37.8569 25.7155 38.7309 25.3335 39.6595C25.2789 39.878 25.1152 40.0965 25.2243 40.3696C25.6609 40.2057 26.0429 39.9326 26.4249 39.6049C27.8983 38.4578 29.2626 37.2561 30.5723 35.9451C32.4823 34.1426 34.2832 32.2308 36.0295 30.2643C36.3023 29.9366 36.5752 29.6635 36.848 29.3903C37.23 29.0626 37.612 28.8441 38.0486 29.0626C38.4306 29.2265 38.5398 29.5542 38.376 30.1004C38.2123 30.5921 37.9395 31.029 37.6666 31.5207C36.7935 32.9409 35.9203 34.3611 35.1563 35.8359C34.6106 36.8737 34.0649 37.9116 33.8466 39.004C33.792 39.3864 33.792 39.7141 33.8466 40.0419C33.9558 40.4789 34.1195 40.5881 34.556 40.5335C34.938 40.5335 35.32 40.3696 35.7566 40.2604C37.3938 39.6049 38.9763 38.8402 40.6135 38.0754C42.3598 37.2015 44.0515 36.3275 45.6886 35.2896C45.7978 35.235 45.9069 35.1804 46.0161 35.1258C46.5072 34.9073 46.9438 35.0165 47.1075 35.3443C47.2712 35.7266 47.1075 36.1636 46.6163 36.4914C46.5072 36.6006 46.3435 36.7099 46.1798 36.8191C44.488 37.8569 42.7418 38.7309 40.9409 39.6049C39.4675 40.315 37.9395 41.0251 36.466 41.6259C35.7566 41.8991 35.0472 42.1722 34.3378 42.2268C33.1372 42.336 32.3732 41.8444 32.1549 40.8066C31.9912 39.9872 32.0457 39.1133 32.3186 38.2393C32.646 37.3107 33.028 36.4367 33.5192 35.5628C33.5737 35.3989 33.6829 35.2896 33.6283 35.1258Z" fill="#530000"/>
<path d="M47.5581 38.7309C47.1761 38.1301 46.7941 37.5292 46.4121 36.9283C46.0301 36.3821 45.7573 35.8359 45.4844 35.235C44.6658 33.214 45.7573 31.4114 47.3398 30.1551C48.5404 29.2265 49.8501 28.6256 51.269 28.4071C52.2513 28.2979 53.1244 28.4618 53.8338 28.9534C54.9798 29.7181 55.089 31.3022 54.1067 32.7224C53.8338 33.1047 53.5064 33.4871 53.1244 33.8148C52.9061 33.9787 52.6878 34.0879 52.4696 34.1426C52.0876 34.2518 51.7601 34.1426 51.5964 33.8148C51.4873 33.5417 51.5964 33.214 51.8147 32.8862C51.9784 32.7224 52.1421 32.6131 52.3604 32.4492C53.3427 31.5753 53.2881 30.4828 52.1967 30.1551C51.8147 30.0458 51.3781 30.0458 50.887 30.1551C49.7956 30.3736 48.8133 30.8652 47.8856 31.6845C47.0124 32.5039 46.7396 33.3778 47.1216 34.3064C47.449 35.1804 47.9401 35.8905 48.4858 36.6552C48.8133 37.1468 49.1407 37.6385 49.4136 38.1847C49.5773 38.4578 49.741 38.5124 50.0684 38.4578C53.7247 37.7477 57.4356 36.9283 61.1464 35.8359C61.6921 35.672 62.1833 35.4535 62.729 35.2896C63.5476 34.9619 63.9841 35.0712 64.0933 35.5628C64.2024 36.109 63.8204 36.4914 63.0019 36.8191C61.5284 37.42 60.0004 37.8023 58.527 38.2393C55.9076 38.8948 53.2881 39.4956 50.6687 39.9326C50.1776 40.0419 49.8501 40.2057 49.6318 40.6973C49.359 41.4074 48.7041 41.8444 47.9947 42.0083C46.4667 42.336 45.1024 42.1175 43.8473 41.5713C43.629 41.4621 43.4653 41.2982 43.4107 41.1343C43.1924 40.6427 43.3561 40.0965 43.8473 39.7141C44.1747 39.4956 44.5021 39.3864 44.8841 39.2771C45.6481 39.0587 46.3576 39.004 47.1216 38.8948C47.2307 38.8948 47.3398 38.8948 47.5581 38.7309ZM45.7573 40.5335C47.831 39.2225 47.9947 41.5167 45.7573 40.5335V40.5335Z" fill="#530000"/>
<path d="M72.8546 30.4282C72.5271 30.4828 72.3089 30.6467 72.0906 30.8105C70.0714 32.1215 68.2706 33.7602 66.5243 35.4535C64.5051 37.5292 62.5406 39.6049 60.7397 41.7898C60.576 42.0083 60.4123 42.1722 60.194 42.336C59.8666 42.6638 59.4846 42.7184 59.2117 42.5545C58.9388 42.4453 58.8297 42.1175 58.9388 41.7352C58.9934 41.5713 59.1026 41.4074 59.1571 41.2436C61.9948 36.7099 64.6688 32.1761 67.5611 27.697C70.89 22.6171 74.2189 17.5917 77.5477 12.5118C77.766 12.1294 78.0389 11.8017 78.3117 11.4739C78.5846 11.0916 78.9666 10.9277 79.4032 10.9823C79.7852 11.037 79.9489 11.3101 79.9489 11.6924C79.9489 11.8563 80.0034 11.9655 80.058 12.1294C80.2763 12.8395 79.9489 13.4404 79.1303 13.6589C78.5846 13.7681 78.3663 14.0959 78.0934 14.4782C76.238 17.264 74.4371 20.0498 72.6363 22.7809C70.2351 26.4407 67.834 30.1004 65.5966 33.7602C65.4328 34.0879 65.2146 34.3611 65.0508 34.6342C65.1054 34.6888 65.1054 34.6888 65.16 34.6888C65.4329 34.4157 65.7603 34.1426 66.0331 33.8694C67.7249 32.1761 69.5257 30.6467 71.5449 29.3357C72.036 29.008 72.5271 28.7349 73.0729 28.571C74.2734 28.1886 75.0374 28.7895 74.7646 29.9912C74.6554 30.7013 74.328 31.3568 74.0006 32.0123C73.182 33.7056 72.3089 35.3443 71.5449 37.0922C71.3811 37.42 71.272 37.7477 71.1083 38.0754C70.9991 38.4578 70.89 38.8402 70.8354 39.2225C70.7263 40.2057 70.9991 40.4789 72.0906 40.1511C74.9829 39.2771 77.8206 38.1847 80.6037 36.6552C81.0403 36.3821 81.4223 36.109 81.8589 35.8359C82.0772 35.7266 82.2954 35.5628 82.5137 35.5081C82.8957 35.3989 83.2232 35.4535 83.3869 35.7813C83.5506 36.0544 83.496 36.3821 83.2232 36.7099C83.0594 36.8737 82.8957 36.983 82.6774 37.0922C81.586 37.8569 80.44 38.5124 79.2394 39.0587C77.0566 40.1511 74.8191 40.9705 72.5817 41.6806C72.0906 41.8444 71.654 41.9537 71.2174 42.0083C70.2897 42.1175 69.6894 41.7898 69.362 41.0797C68.98 40.3696 68.98 39.5503 69.2529 38.6763C69.4711 37.8023 69.8531 36.983 70.2351 36.109C70.9446 34.6342 71.7086 33.1593 72.418 31.6299C72.6363 31.2475 72.8546 30.8652 72.8546 30.4282Z" fill="#530000"/>
<path d="M88.9203 35.9451C88.5383 36.3821 88.1018 36.7645 87.7198 37.1468C86.6829 38.1847 85.5915 39.2225 84.4455 40.1511C83.8998 40.5881 83.354 40.9705 82.8083 41.2436C82.4809 41.4074 82.208 41.5167 81.8806 41.5713C80.8438 41.7352 80.1889 41.189 80.2435 40.2057C80.298 39.6595 80.4618 39.0587 80.68 38.5124C81.6623 36.1636 82.972 33.9241 84.9366 31.9576C86.028 30.8652 87.2832 29.9366 88.7021 29.3357C89.4115 29.0626 90.1209 28.8987 90.8303 29.008C91.4306 29.1172 91.8672 29.3903 92.1946 29.882C92.3038 30.1004 92.4129 30.1551 92.6858 29.882C93.3406 29.3903 93.7226 29.3357 94.0501 29.6088C94.3775 29.882 94.3775 30.3189 93.9409 30.9744C93.2861 32.0123 92.5221 33.0501 91.8672 34.0879C91.0486 35.3989 90.3392 36.7099 90.0663 38.1301C90.0118 38.5124 89.9572 38.9494 90.0663 39.2771C90.1755 39.8234 90.4483 39.9872 91.1032 39.878C92.0309 39.7141 92.9586 39.3318 93.8863 38.9494C96.7241 37.8023 99.5618 36.546 102.345 35.1258C102.563 35.0165 102.781 34.9073 103 34.8527C103.382 34.798 103.709 34.9619 103.818 35.235C103.927 35.5628 103.818 35.9451 103.491 36.2182C103.327 36.3275 103.163 36.4367 103 36.546C99.7255 38.1847 96.4512 39.6049 93.1223 40.9158C92.4129 41.189 91.758 41.4074 91.0486 41.5167C89.5206 41.8444 88.4838 41.1343 88.32 39.7141C88.1563 38.6217 88.4292 37.5292 88.8658 36.4367C88.9203 36.2729 89.0295 36.1636 88.9203 35.9451ZM82.0989 39.2771C82.0989 39.441 81.9352 39.6595 82.1535 39.7688C82.3172 39.8234 82.4809 39.7141 82.6446 39.6049C83.1903 39.2225 83.6815 38.8402 84.1726 38.4032C85.8643 36.9283 87.5015 35.2896 89.0841 33.651C89.5206 33.1593 90.0118 32.7224 90.4483 32.2308C90.9941 31.5753 90.7758 30.7559 90.0118 30.7013C89.5752 30.6467 89.0841 30.8106 88.6475 31.0837C87.7198 31.5207 86.9012 32.1215 86.1372 32.8862C84.6638 34.3064 83.6815 35.9451 82.8083 37.6384C82.5355 38.1847 82.2626 38.7309 82.0989 39.2771Z" fill="#530000"/>
<path d="M103.601 36.983C104.092 36.4914 104.529 35.9998 105.02 35.5081C106.439 33.9787 107.967 32.5039 109.55 31.1383C110.095 30.7013 110.641 30.3189 111.241 29.9912C112.387 29.3357 113.26 29.5542 113.697 30.5374C113.752 30.5921 113.806 30.7013 113.861 30.8105C114.789 33.2686 116.971 34.0879 119.591 34.3064C120.027 34.3611 120.519 34.3064 120.955 34.1426C121.119 34.0879 121.283 34.0333 121.446 34.0333C121.883 33.9787 122.156 34.1972 122.21 34.5249C122.265 34.9073 122.101 35.235 121.719 35.4535C121.501 35.6174 121.337 35.672 121.119 35.7266C119.7 36.2182 118.445 36.109 117.244 35.7813C116.044 35.4535 114.898 34.9073 113.915 34.1972C113.151 33.651 112.66 32.8316 112.333 31.9576C112.005 31.2475 111.951 31.1929 111.187 31.7938C108.84 33.651 106.766 35.7813 104.802 38.0208C103.656 39.3318 102.51 40.6973 101.364 42.0629C101.091 42.3907 100.818 42.7184 100.491 43.0461C100.163 43.3739 99.7268 43.5924 99.2902 43.4285C98.9082 43.3193 98.7991 42.9369 98.9082 42.3907C99.0719 41.6259 99.4539 40.8612 99.8359 40.1511C100.818 38.3485 101.908 36.6006 103 34.8527C103.927 33.4325 104.856 32.0123 105.784 30.5921C105.839 30.4282 105.948 30.3189 106.057 30.2097C106.384 29.7727 106.985 29.6635 107.312 29.9366C107.694 30.2643 107.749 30.8105 107.312 31.1929C106.876 31.6299 106.603 32.1215 106.33 32.5585C105.402 34.0333 104.474 35.5081 103.547 36.9283C103.547 36.983 103.601 36.983 103.601 36.983Z" fill="#530000"/>
<path d="M157.519 12.3479C157.628 12.3479 157.737 12.3479 157.846 12.3479C158.228 12.4025 158.392 12.621 158.447 12.9488C158.447 13.2765 158.283 13.6589 157.901 13.7681C157.41 13.9866 157.191 14.369 156.973 14.806C153.208 21.47 149.442 28.0794 145.513 34.6888C145.459 34.798 145.349 34.9073 145.295 35.0165C145.077 35.4535 145.131 35.5628 145.622 35.4535C147.805 34.9619 149.933 34.6342 152.116 34.3064C154.299 34.0333 156.537 33.7602 158.665 33.7602C159.156 33.7602 159.647 33.8694 160.084 33.9241C160.52 34.0333 160.848 34.1972 161.175 34.4157C161.503 34.6342 161.666 35.0165 161.666 35.4535C161.666 35.8359 161.339 36.2182 160.957 36.4367C160.575 36.6006 160.193 36.546 160.029 36.1636C159.865 35.672 159.429 35.6174 158.883 35.5081C157.792 35.3989 156.591 35.5081 155.391 35.6174C151.843 35.8905 148.296 36.546 144.749 37.2561C144.094 37.3653 143.712 37.6385 143.385 38.1847C140.274 43.4285 136.945 48.6177 133.78 53.8069C132.962 55.1725 132.143 56.4835 131.434 57.849C131.215 58.1768 131.052 58.5045 130.997 58.8869C130.943 59.16 130.724 59.4331 130.506 59.6516C130.179 59.9793 129.797 60.0886 129.469 59.9247C129.142 59.8155 128.978 59.4877 129.087 59.1054C129.196 58.8322 129.305 58.5591 129.469 58.286C130.615 55.9918 131.925 53.8069 133.289 51.622C135.909 47.3614 138.583 43.0461 141.202 38.7855C141.366 38.567 141.639 38.2939 141.529 38.1301C141.366 37.9116 141.038 38.0754 140.82 38.1847C139.401 38.5124 137.928 38.9494 136.509 39.5503C136.181 39.6595 135.909 39.8234 135.636 40.1511C135.254 40.6427 134.763 40.752 134.326 40.4789C133.889 40.2057 133.889 39.6595 134.271 39.1679C134.49 38.7855 134.872 38.6217 135.254 38.4578C136.236 37.9116 137.273 37.5838 138.31 37.2561C139.619 36.8191 140.875 36.4367 142.184 36.1636C142.675 36.0544 143.003 35.8359 143.33 35.3443C145.186 32.2308 147.041 29.0626 148.842 25.8398C150.97 22.1255 153.099 18.4111 155.227 14.6967C155.5 14.2051 155.718 13.7681 155.991 13.2765C156.427 12.5118 156.646 12.3479 157.519 12.3479ZM190.153 3.49895C187.97 3.49895 185.896 3.77207 183.877 4.04519C178.529 4.75529 173.181 5.79313 167.833 7.04946C162.267 8.36042 156.7 10.163 151.298 12.6757C148.133 14.1505 145.022 15.8438 142.13 17.9195C140.602 19.0666 139.128 20.2683 137.982 21.7431C137.382 22.5078 136.836 23.3272 136.618 24.2558C136.454 24.9659 136.509 25.5667 136.727 26.1676C137.055 26.9323 137.546 27.5878 138.037 28.2433C138.201 28.4071 138.419 28.4618 138.583 28.6256C138.965 28.8441 139.019 29.2265 138.801 29.6088C138.583 30.0458 138.091 30.2643 137.655 30.1551C137.164 30.0458 136.782 29.7727 136.509 29.445C135.963 28.6802 135.417 27.9155 135.09 26.9869C134.544 25.6213 134.708 24.1465 135.527 22.6171C136.4 21.0876 137.6 19.7767 138.965 18.5203C141.093 16.6631 143.439 15.1337 145.841 13.7681C152.171 10.163 158.719 7.75956 165.432 6.01162C170.671 4.64604 175.909 3.66282 181.148 2.78885C183.495 2.40649 185.841 2.07875 188.188 1.91488C189.607 1.75101 190.971 1.64176 192.335 1.86026C192.827 1.91488 193.318 2.02413 193.754 2.29724C194.627 2.78885 194.573 3.88132 193.7 4.75529C193.318 5.13765 192.936 5.2469 192.608 5.08303C192.281 4.91916 192.226 4.64604 192.335 4.15443C192.499 3.66282 192.499 3.66282 192.008 3.55358C191.353 3.44433 190.644 3.49895 190.153 3.49895Z" fill="#530000"/>
<path d="M167.58 35.9451C167.198 36.3821 166.761 36.7645 166.379 37.1468C165.343 38.1847 164.251 39.2225 163.105 40.1511C162.559 40.5881 162.014 40.9705 161.468 41.2436C161.141 41.4074 160.868 41.5167 160.54 41.5713C159.503 41.7352 158.849 41.189 158.903 40.2057C158.958 39.6595 159.121 39.0587 159.34 38.5124C160.322 36.1636 161.632 33.9241 163.596 31.9576C164.688 30.8652 165.943 29.9366 167.362 29.3357C168.071 29.0626 168.781 28.8987 169.49 29.008C170.09 29.1172 170.527 29.3903 170.854 29.882C170.963 30.1004 171.073 30.1551 171.345 29.882C172 29.3903 172.382 29.3357 172.71 29.6088C173.037 29.882 173.037 30.3189 172.601 30.9744C171.946 32.0123 171.182 33.0501 170.527 34.0879C169.708 35.3989 168.999 36.7099 168.726 38.1301C168.671 38.5124 168.617 38.9494 168.726 39.2771C168.835 39.8234 169.108 39.9872 169.763 39.878C170.691 39.7141 171.618 39.3318 172.546 38.9494C175.384 37.8023 178.221 36.546 181.005 35.1258C181.223 35.0165 181.441 34.9073 181.66 34.8527C182.041 34.798 182.369 34.9619 182.478 35.235C182.587 35.5628 182.478 35.9451 182.151 36.2182C181.987 36.3275 181.823 36.4367 181.66 36.546C178.385 38.1847 175.111 39.6049 171.782 40.9158C171.073 41.189 170.418 41.4074 169.708 41.5167C168.18 41.8444 167.143 41.1343 166.98 39.7141C166.816 38.6217 167.089 37.5292 167.525 36.4367C167.58 36.2729 167.689 36.1636 167.58 35.9451ZM160.759 39.2771C160.759 39.441 160.595 39.6595 160.813 39.7688C160.977 39.8234 161.141 39.7141 161.304 39.6049C161.85 39.2225 162.341 38.8402 162.832 38.4032C164.524 36.9283 166.161 35.2896 167.744 33.651C168.18 33.1593 168.671 32.7224 169.108 32.2308C169.654 31.5753 169.435 30.7559 168.671 30.7013C168.235 30.6467 167.744 30.8106 167.307 31.0837C166.379 31.5207 165.561 32.1215 164.797 32.8862C163.323 34.3064 162.341 35.9451 161.468 37.6384C161.195 38.1847 160.922 38.7309 160.759 39.2771Z" fill="#530000"/>
<path d="M183.134 38.7309C182.752 38.1301 182.37 37.5292 181.988 36.9283C181.606 36.3821 181.333 35.8359 181.06 35.235C180.242 33.214 181.333 31.4114 182.916 30.1551C184.116 29.2265 185.426 28.6256 186.845 28.4071C187.827 28.2979 188.701 28.4618 189.41 28.9534C190.556 29.7181 190.665 31.3022 189.683 32.7224C189.41 33.1047 189.082 33.4871 188.7 33.8148C188.482 33.9787 188.264 34.0879 188.046 34.1426C187.664 34.2518 187.336 34.1426 187.172 33.8148C187.063 33.5417 187.172 33.214 187.391 32.8862C187.554 32.7224 187.718 32.6131 187.936 32.4492C188.919 31.5753 188.864 30.4828 187.773 30.1551C187.391 30.0458 186.954 30.0458 186.463 30.1551C185.372 30.3736 184.389 30.8652 183.462 31.6845C182.588 32.5039 182.316 33.3778 182.698 34.3064C183.025 35.1804 183.516 35.8905 184.062 36.6552C184.389 37.1468 184.717 37.6385 184.99 38.1847C185.153 38.4578 185.317 38.5124 185.644 38.4578C189.301 37.7477 193.012 36.9283 196.722 35.8359C197.268 35.672 197.759 35.4535 198.305 35.2896C199.124 34.9619 199.56 35.0712 199.669 35.5628C199.779 36.109 199.396 36.4914 198.578 36.8191C197.104 37.42 195.576 37.8023 194.103 38.2393C191.484 38.8948 188.864 39.4956 186.245 39.9326C185.754 40.0419 185.426 40.2057 185.208 40.6973C184.935 41.4074 184.28 41.8444 183.571 42.0083C182.043 42.336 180.678 42.1175 179.423 41.5713C179.205 41.4621 179.041 41.2982 178.987 41.1343C178.768 40.6427 178.932 40.0965 179.423 39.7141C179.751 39.4956 180.078 39.3864 180.46 39.2771C181.224 39.0587 181.934 39.004 182.698 38.8948C182.807 38.8948 182.916 38.8948 183.134 38.7309ZM181.333 40.5335C183.407 39.2225 183.571 41.5167 181.333 40.5335V40.5335Z" fill="#530000"/>
<path d="M208.431 30.4282C208.103 30.4828 207.885 30.6467 207.667 30.8105C205.647 32.1215 203.847 33.7602 202.1 35.4535C200.081 37.5292 198.117 39.6049 196.316 41.7898C196.152 42.0083 195.988 42.1722 195.77 42.336C195.443 42.6638 195.061 42.7184 194.788 42.5545C194.515 42.4453 194.406 42.1175 194.515 41.7352C194.569 41.5713 194.679 41.4074 194.733 41.2436C197.571 36.7099 200.245 32.1761 203.137 27.697C206.466 22.6171 209.795 17.5917 213.124 12.5118C213.342 12.1294 213.615 11.8017 213.888 11.4739C214.161 11.0916 214.543 10.9277 214.979 10.9823C215.361 11.037 215.525 11.3101 215.525 11.6924C215.525 11.8563 215.579 11.9655 215.634 12.1294C215.852 12.8395 215.525 13.4404 214.706 13.6589C214.161 13.7681 213.942 14.0959 213.669 14.4782C211.814 17.264 210.013 20.0498 208.212 22.7809C205.811 26.4407 203.41 30.1004 201.173 33.7602C201.009 34.0879 200.791 34.3611 200.627 34.6342C200.681 34.6888 200.681 34.6888 200.736 34.6888C201.009 34.4157 201.336 34.1426 201.609 33.8694C203.301 32.1761 205.102 30.6467 207.121 29.3357C207.612 29.008 208.103 28.7349 208.649 28.571C209.85 28.1886 210.614 28.7895 210.341 29.9912C210.232 30.7013 209.904 31.3568 209.577 32.0123C208.758 33.7056 207.885 35.3443 207.121 37.0922C206.957 37.42 206.848 37.7477 206.684 38.0754C206.575 38.4578 206.466 38.8402 206.411 39.2225C206.302 40.2057 206.575 40.4789 207.667 40.1511C210.559 39.2771 213.397 38.1847 216.18 36.6552C216.616 36.3821 216.998 36.109 217.435 35.8359C217.653 35.7266 217.872 35.5628 218.09 35.5081C218.472 35.3989 218.799 35.4535 218.963 35.7813C219.127 36.0544 219.072 36.3821 218.799 36.7099C218.636 36.8737 218.472 36.983 218.254 37.0922C217.162 37.8569 216.016 38.5124 214.816 39.0587C212.633 40.1511 210.395 40.9705 208.158 41.6806C207.667 41.8444 207.23 41.9537 206.794 42.0083C205.866 42.1175 205.265 41.7898 204.938 41.0797C204.556 40.3696 204.556 39.5503 204.829 38.6763C205.047 37.8023 205.429 36.983 205.811 36.109C206.521 34.6342 207.285 33.1593 207.994 31.6299C208.212 31.2475 208.431 30.8652 208.431 30.4282Z" fill="#530000"/>
<path d="M216.747 38.4032C217.129 36.7645 217.839 35.3443 218.548 33.9787C219.094 32.9955 219.64 32.0669 220.24 31.1383C220.513 30.7013 220.84 30.2643 221.058 29.7727C221.168 29.4996 221.386 29.2265 221.604 29.008C221.932 28.7895 222.259 28.7349 222.586 28.8987C222.859 29.008 222.914 29.2811 222.859 29.6088C222.805 29.882 222.696 30.1004 222.532 30.3189C221.986 31.2475 221.44 32.1215 220.895 32.9955C219.967 34.5249 219.203 36.0544 218.657 37.6384C218.439 38.1847 218.33 38.7309 218.33 39.2771C218.384 39.7141 218.548 39.8234 218.985 39.8234C219.312 39.8234 219.694 39.7688 220.022 39.6595C223.623 38.4578 227.225 37.0922 230.663 35.0165C230.772 34.9073 230.936 34.8527 231.1 34.798C231.427 34.6342 231.809 34.7434 231.973 35.0165C232.082 35.3443 232.027 35.672 231.754 35.9998C231.482 36.2729 231.209 36.4367 230.881 36.6552C229.244 37.6384 227.498 38.4578 225.752 39.1679C224.005 39.9326 222.259 40.6427 220.513 41.189C219.967 41.3528 219.367 41.4621 218.821 41.5713C217.62 41.6806 216.802 41.1343 216.638 39.9872C216.529 39.441 216.638 38.8402 216.747 38.4032ZM226.734 23.2179C226.625 23.6003 226.461 23.8734 226.134 24.0373C225.806 24.1465 225.642 24.365 225.479 24.6381C225.151 25.1844 224.769 25.7306 224.769 26.3861C224.769 26.7684 224.333 27.1508 223.896 27.26C223.405 27.3693 223.023 27.2054 222.914 26.8231C222.859 26.5499 222.914 26.2768 223.023 25.9491C223.569 24.802 224.224 23.6549 224.988 22.6171C225.151 22.3986 225.315 22.2347 225.479 22.1255C226.079 21.7977 226.679 21.9616 226.734 22.5624C226.788 22.7809 226.734 23.0541 226.734 23.2179Z" fill="#530000"/>
<path d="M242.855 38.2939C242.201 38.2939 241.491 38.3485 240.891 38.2393C240.236 38.1301 239.581 38.0208 239.035 37.6931C238.817 37.5838 238.653 37.6385 238.381 37.8569C237.617 38.6217 236.853 39.3864 235.979 40.0419C234.997 40.8066 233.96 41.5167 232.869 41.9537C232.378 42.1722 231.887 42.336 231.395 42.3907C230.195 42.6092 229.267 42.1175 228.994 41.0251C228.831 40.4789 228.831 39.878 228.94 39.2771C229.158 37.8569 229.758 36.546 230.577 35.235C231.777 33.2686 233.251 31.5753 235.106 30.2097C236.143 29.445 237.235 28.8987 238.381 28.7895C239.472 28.6802 240.236 29.0626 240.782 29.8273C241 30.2097 240.891 30.7013 241 31.0837C241.109 31.466 241.491 31.6845 241.491 32.1215C241.546 32.7224 241.382 33.3232 241.164 33.8694C240.945 34.4703 240.618 35.0165 240.291 35.5081C239.963 36.0544 239.963 36.1636 240.509 36.3275C241.055 36.546 241.709 36.6006 242.364 36.6006C243.892 36.7099 245.529 36.546 247.112 36.2729C247.767 36.1636 248.367 35.9998 248.967 35.7266C249.077 35.672 249.186 35.6174 249.295 35.5628C249.731 35.4535 250.113 35.6174 250.223 35.9451C250.332 36.2729 250.168 36.7099 249.786 36.983C249.513 37.1468 249.24 37.2561 249.022 37.3653C247.876 37.8569 246.73 38.0208 245.639 38.1301C244.711 38.2939 243.783 38.3486 242.855 38.2939ZM230.741 38.6217C230.631 39.1133 230.577 39.4956 230.631 39.878C230.631 40.5881 230.904 40.8066 231.723 40.6973C232.378 40.5881 232.978 40.2604 233.578 39.878C234.943 39.0587 236.143 38.0208 237.289 36.8737C237.562 36.6006 237.671 36.3821 237.507 36.0544C236.853 34.6342 237.453 32.5585 238.926 31.3568C239.308 31.0837 239.308 30.9198 239.035 30.7013C238.653 30.3736 238.108 30.4282 237.617 30.5374C236.962 30.7559 236.416 31.0837 235.87 31.466C234.288 32.7224 233.033 34.1972 231.996 35.8359C231.45 36.7645 231.013 37.7477 230.741 38.6217ZM239.69 32.8316C239.09 33.3778 238.872 33.9787 239.09 34.4703C239.636 33.651 239.745 33.2686 239.69 32.8316Z" fill="#530000"/>
<path d="M251.086 35.5628C251.468 35.1258 251.85 34.7434 252.287 34.3611C254.087 32.5585 255.997 30.9198 258.071 29.4996C258.508 29.1719 258.944 28.9534 259.326 28.6802C259.599 28.5164 259.927 28.4071 260.199 28.3525C261.018 28.134 261.564 28.5164 261.618 29.2811C261.618 29.7727 261.455 30.2097 261.291 30.6467C260.691 32.1761 259.872 33.5963 259.163 35.0712C258.671 36.1636 258.235 37.2561 257.798 38.3485C257.635 38.7855 257.471 39.2771 257.471 39.7141C257.416 40.2057 257.635 40.3696 258.126 40.2604C258.781 40.1511 259.435 39.9326 260.09 39.6049C262.819 38.3485 265.547 36.983 268.276 35.5628C268.494 35.4535 268.713 35.2896 268.931 35.235C269.422 35.0712 269.804 35.1804 269.968 35.5081C270.077 35.8905 269.913 36.3275 269.422 36.6552C268.767 37.0376 268.112 37.42 267.403 37.7477C264.947 39.004 262.491 40.2604 259.981 41.3528C259.163 41.6806 258.289 41.9537 257.416 41.9537C256.379 41.9537 255.834 41.4621 255.725 40.4789C255.67 39.878 255.779 39.2771 255.997 38.6763C256.761 36.4367 257.853 34.2518 258.944 32.0669C259.217 31.5207 259.49 30.9744 259.654 30.3189C259.272 30.4282 259.053 30.6467 258.781 30.8652C256.598 32.34 254.633 34.0879 252.778 35.9451C251.141 37.5838 249.503 39.2771 247.975 41.0251C247.703 41.2982 247.484 41.5713 247.211 41.7898C246.775 42.1722 246.338 42.2814 246.011 42.1175C245.683 41.8991 245.574 41.5167 245.793 41.0251C245.956 40.5881 246.229 40.1511 246.447 39.7141C247.703 37.7477 248.903 35.7813 250.213 33.8148C251.25 32.2854 252.287 30.7559 253.323 29.1719C253.378 29.1172 253.433 29.0626 253.487 28.9534C253.869 28.4071 254.415 28.1886 254.851 28.4618C255.233 28.6802 255.288 29.3357 254.906 29.7727C253.542 31.466 252.45 33.3232 251.25 35.0712C251.141 35.1804 251.086 35.3443 250.977 35.5081C251.031 35.5081 251.031 35.5081 251.086 35.5628Z" fill="#530000"/>
</svg>
